# xmcd
#
# Track frame offsets:
# 150
# 15589
# 33373
# 48900
# 61982
# 83206
# 101430
# 115346
# 130358
# 149832
#
# Disc length: 2240 seconds
#
#
# Revision: 0
# Processed by: cddbd v1.5.2PL0 Copyright (c) Steve Scherf et al.
# Submitted via: FreeRIP 2.951 
#
DISCID=8708be0a
DTITLE=Kenny Bishop - Kenny Bishop
DYEAR=2006
DGENRE=Gospel
TTITLE0=Lord, Have Mercy
TTITLE1=Don't Let Who You Are Keep You Away
TTITLE2=More Than Amazing
TTITLE3=God Is Looking At My Heart
TTITLE4=Out of Mercy's Way
TTITLE5=I Need You More Today
TTITLE6=Under The Influence of Mercy
TTITLE7=I Can't Believe What Grace Has Done For Me
TTITLE8=The Prodigal's Dad
TTITLE9=It's Never Too Late
EXTD=
EXTT0=
EXTT1=
EXTT2=
EXTT3=
EXTT4=
EXTT5=
EXTT6=
EXTT7=
EXTT8=
EXTT9=
PLAYORDER=
